<svg width="32" height="32" viewBox="0 0 32 32" fill="none" xmlns="http://www.w3.org/2000/svg">
<rect width="32" height="32" rx="4" fill="white"/>
<g clip-path="url(#clip0_723_13147)">
<path fill-rule="evenodd" clip-rule="evenodd" d="M3.03442 3.19946H28.6344V28.7995H3.03442V3.19946Z" fill="white"/>
<path fill-rule="evenodd" clip-rule="evenodd" d="M15.8329 3.57593C8.97166 3.57593 3.40942 9.13829 3.40942 15.9994C3.40942 22.8607 8.97179 28.423 15.8329 28.423C22.694 28.423 28.2565 22.8607 28.2565 15.9994C28.2565 9.13829 22.694 3.57593 15.8329 3.57593ZM15.8329 23.1902C10.8414 23.1902 6.53804 20.2458 4.56301 15.9994C6.53804 11.7532 10.8414 8.80879 15.8329 8.80879C20.8243 8.80879 25.1276 11.7531 27.1027 15.9994C25.1276 20.2458 20.8243 23.1902 15.8329 23.1902Z" fill="black"/>
<path fill-rule="evenodd" clip-rule="evenodd" d="M15.8371 22.5704C19.4664 22.5704 22.4084 19.6283 22.4084 15.9989C22.4084 12.3696 19.4664 9.42749 15.8371 9.42749C12.2078 9.42749 9.26563 12.3698 9.26563 15.9989C9.26549 19.6283 12.2078 22.5704 15.8371 22.5704Z" fill="black"/>
<path fill-rule="evenodd" clip-rule="evenodd" d="M13.5635 13.8478V13.249C13.5635 13.0115 13.4932 12.9587 13.3592 12.9587C13.2187 12.9587 13.1486 13.0114 13.1486 13.249V16.4287C13.1486 16.6662 13.2188 16.7191 13.3592 16.7191C13.4932 16.7191 13.5635 16.6663 13.5635 16.4287V15.9512H14.2402V16.4881C14.2402 17.1016 13.7741 17.2797 13.3529 17.2797C12.9378 17.2797 12.4719 17.1016 12.4719 16.4881V13.1896C12.4719 12.576 12.938 12.3979 13.3529 12.3979C13.7741 12.3979 14.2402 12.576 14.2402 13.1896V13.8478H13.5635ZM14.9611 12.4903H15.9186C16.461 12.4903 16.71 12.8333 16.71 13.3347V14.0801C16.7038 14.4892 16.474 14.6144 16.0844 14.7069V14.72C16.5121 14.8058 16.7292 14.9245 16.7292 15.4523V16.1978C16.7292 16.7585 16.4801 17.1872 15.9121 17.1872H14.9609L14.9611 12.4903Z" fill="white"/>
<path fill-rule="evenodd" clip-rule="evenodd" d="M15.6345 14.4362H15.7878C15.9602 14.4362 16.0304 14.357 16.0304 14.0866V13.3741C16.0304 13.1036 15.9602 13.0244 15.7878 13.0244H15.6345V14.4362ZM15.6345 16.6264H15.7687C15.9602 16.6264 16.0494 16.5471 16.0494 16.257V15.3664C16.0494 15.0761 15.9602 14.9969 15.7687 14.9969H15.6345V16.6264Z" fill="black"/>
<path fill-rule="evenodd" clip-rule="evenodd" d="M18.0301 16.4286C18.0301 16.6661 18.1001 16.7189 18.2407 16.7189C18.3748 16.7189 18.4448 16.6662 18.4448 16.4286V15.9339C18.4448 15.2742 17.3533 14.6277 17.3533 13.8624V13.1896C17.3533 12.576 17.8192 12.3979 18.2342 12.3979C18.6555 12.3979 19.1216 12.576 19.1216 13.1896V13.8478H18.4448V13.249C18.4448 13.0115 18.3748 12.9587 18.2407 12.9587C18.1001 12.9587 18.0301 13.0114 18.0301 13.249V13.8295C18.0301 14.1661 19.1216 15.1819 19.1216 15.6569V16.4881C19.1216 17.1016 18.6555 17.2797 18.2342 17.2797C17.8192 17.2797 17.3533 17.1016 17.3533 16.4881V15.9512H18.0301V16.4286Z" fill="white"/>
</g>
<defs>
<clipPath id="clip0_723_13147">
<rect width="25.6" height="25.6" fill="white" transform="translate(3.0376 3.19995)"/>
</clipPath>
</defs>
</svg>
